<?xml version="1.0" standalone="no"?>
<!DOCTYPE svg PUBLIC "-//W3C//DTD SVG 20010904//EN"
 "http://www.w3.org/TR/2001/REC-SVG-20010904/DTD/svg10.dtd">
<svg version="1.0" xmlns="http://www.w3.org/2000/svg"
 width="321.000000pt" height="500.000000pt" viewBox="0 0 321.000000 500.000000"
 preserveAspectRatio="xMidYMid meet">

<g transform="translate(0.000000,500.000000) scale(0.100000,-0.100000)"
fill="#000000" stroke="none">
<path d="M1760 4720 c-25 -4 -180 -29 -345 -55 -342 -53 -371 -59 -379 -82 -4
-10 -4 -98 0 -198 l6 -180 -41 -130 c-28 -86 -49 -136 -63 -146 -15 -12 -19
-23 -15 -40 5 -18 1 -28 -14 -40 -19 -14 -20 -18 -8 -39 9 -14 10 -24 4 -26
-33 -13 -37 -21 -25 -45 11 -20 10 -25 -8 -37 -18 -12 -20 -18 -11 -34 9 -16
7 -24 -9 -41 -18 -18 -19 -22 -7 -41 12 -18 10 -35 -21 -141 -131 -449 -308
-1061 -371 -1285 -41 -146 -80 -270 -86 -276 -7 -6 -54 -26 -105 -44 -51 -18
-95 -37 -98 -41 -4 -7 143 -396 200 -530 13 -32 36 -48 68 -49 4 0 20 44 37
98 44 143 374 1286 576 1992 194 680 212 740 229 757 10 11 227 55 235 47 2
-1 -14 -10 -35 -19 -22 -9 -56 -29 -76 -45 -25 -21 -48 -30 -72 -30 -31 0 -36
-4 -42 -27 -3 -16 -14 -57 -24 -93 -12 -41 -16 -68 -10 -74 17 -17 11 -25 -23
-40 -31 -13 -35 -20 -59 -107 -14 -52 -89 -321 -166 -599 -157 -564 -292
-1052 -327 -1180 -13 -47 -49 -175 -80 -285 -129 -455 -138 -501 -111 -524 11
-9 15 -4 21 26 10 55 33 95 53 91 18 -4 18 -7 6 -118 l-6 -65 -36 -2 c-62 -3
-84 -29 -104 -124 -23 -105 -20 -112 83 -182 56 -38 84 -65 104 -100 43 -77
118 -117 458 -247 317 -122 625 -166 772 -111 35 14 98 26 150 30 128 11 147
23 173 113 28 92 28 103 -3 134 -14 14 -25 29 -25 34 0 4 -28 9 -62 9 -122 0
-303 35 -332 63 -12 13 -11 16 6 27 13 8 18 19 15 33 -4 14 0 22 14 25 11 3
18 11 15 19 -3 7 0 15 7 17 7 2 9 8 4 12 -4 5 -13 3 -19 -3 -7 -7 -16 -12 -22
-12 -5 0 -2 6 8 13 16 12 17 17 6 36 -6 13 -8 21 -2 17 5 -3 13 1 16 10 3 8 2
13 -3 10 -10 -6 -25 24 -16 32 3 3 5 0 5 -6 0 -7 5 -12 11 -12 6 0 9 6 6 13
-3 7 1 24 8 37 9 17 10 30 3 46 -6 13 -8 31 -4 41 6 15 9 15 17 3 8 -11 9 -9
4 9 -6 21 -5 23 11 17 16 -6 15 -4 -3 14 -26 24 -28 31 -11 48 10 10 10 15 -1
21 -9 6 -11 15 -6 27 11 25 12 30 14 55 0 11 6 17 11 14 6 -4 10 14 10 47 0
32 6 62 15 74 11 15 15 16 16 4 1 -15 8 5 28 85 5 22 15 41 20 43 6 2 13 26
17 53 4 27 11 52 15 55 5 3 9 17 10 32 0 15 3 21 6 14 3 -7 13 3 24 25 10 20
19 39 19 40 0 9 -30 1 -36 -9 -5 -8 -1 -9 12 -4 14 5 16 4 8 -4 -8 -8 -19 -8
-38 0 -20 7 -60 7 -137 -1 -143 -14 -160 -3 -94 61 19 19 35 37 35 41 0 4 -33
14 -72 24 -67 15 -76 15 -110 1 -24 -10 -38 -23 -38 -34 0 -10 -11 -29 -25
-42 -23 -22 -24 -25 -10 -46 22 -34 19 -154 -6 -244 -29 -106 -47 -159 -63
-182 -8 -11 -12 -28 -9 -39 3 -10 -2 -34 -11 -53 -9 -19 -19 -49 -23 -66 -3
-17 -12 -34 -20 -37 -11 -4 -13 -16 -9 -47 9 -61 -5 -98 -40 -109 -48 -16 -64
-36 -64 -82 0 -52 -18 -71 -56 -58 -44 15 -52 38 -25 67 21 22 23 30 13 50 -7
17 -7 27 1 35 8 8 8 14 -1 23 -17 17 -15 38 8 81 20 38 19 62 -3 54 -7 -2 -20
0 -29 5 -14 6 -15 14 -8 32 5 13 6 27 3 30 -4 3 4 17 17 31 18 20 23 35 21 69
-1 28 3 47 13 55 11 10 14 24 9 57 -3 27 -1 56 8 76 7 18 12 43 11 55 -2 13 4
33 12 45 11 15 16 45 16 90 0 63 2 68 32 92 l32 25 -17 36 c-24 50 -22 60 18
93 64 52 62 119 -7 177 -36 30 -49 25 -44 -18 5 -42 -8 -73 -40 -100 -19 -17
-27 -36 -31 -70 -3 -26 -13 -52 -21 -59 -12 -10 -14 -10 -8 0 4 6 2 12 -3 12
-6 0 -11 -7 -11 -15 0 -8 5 -15 10 -15 6 0 10 -24 10 -54 0 -55 -16 -76 -43
-59 -7 4 -5 -1 3 -12 14 -16 13 -17 -8 -11 -21 7 -28 -1 -23 -28 1 -5 -4 -13
-11 -19 -10 -7 -10 -8 2 -4 11 3 15 -4 17 -29 1 -19 -3 -34 -9 -34 -6 0 -8 -3
-5 -7 4 -3 2 -12 -3 -18 -6 -7 -11 -24 -12 -39 -1 -14 -6 -26 -9 -26 -4 0 -6
-21 -5 -46 2 -28 -3 -51 -11 -59 -7 -7 -14 -22 -16 -32 -2 -10 -7 -25 -10 -33
-3 -8 -8 -31 -11 -50 -8 -60 -40 -168 -53 -182 -7 -6 -13 -25 -13 -40 0 -15
-5 -28 -11 -28 -6 0 -9 -7 -5 -15 3 -8 1 -15 -4 -15 -6 0 -10 -13 -10 -30 0
-27 -3 -30 -32 -30 -34 0 -112 26 -179 61 -41 21 -50 46 -25 72 8 7 16 31 18
52 3 37 1 39 -47 66 -79 43 -78 45 7 151 90 111 124 148 136 148 12 0 22 -24
22 -50 0 -10 7 -20 15 -24 14 -5 19 13 18 61 0 7 4 11 11 10 6 -1 12 16 14 41
3 39 5 42 20 30 12 -10 14 -10 8 0 -4 7 -1 14 7 18 8 3 13 13 10 23 -2 9 7 29
21 44 13 15 20 29 15 32 -5 4 -9 3 -9 -2 0 -4 -5 0 -11 10 -8 13 -8 22 -1 29
6 6 8 17 5 24 -4 10 0 12 11 8 9 -3 16 -2 16 3 0 5 10 20 22 33 13 14 21 34
20 47 -2 13 1 23 7 23 6 0 11 -8 12 -17 0 -10 3 -13 5 -6 3 7 0 22 -6 34 -7
12 -8 19 -2 15 5 -3 15 1 23 10 10 13 9 16 -10 21 -19 5 -20 7 -5 18 18 13 67
8 58 -6 -3 -5 -10 -6 -16 -3 -7 4 -8 2 -4 -4 10 -16 61 11 82 43 13 20 14 30
4 59 -8 25 -8 41 -1 55 14 25 14 74 1 66 -5 -3 -7 0 -4 8 3 8 1 18 -5 22 -6 3
-11 30 -11 58 0 64 -12 86 -34 68 -26 -22 -30 12 -7 58 17 33 19 44 9 66 -8
19 -8 34 0 61 7 25 8 43 0 59 -7 17 -6 30 7 54 10 21 14 43 10 61 -7 30 -3 32
84 43 11 2 14 19 12 77 -1 41 -5 85 -8 98 -4 17 1 28 16 38 12 9 34 43 50 77
15 34 51 89 79 121 29 33 53 64 53 70 1 6 2 25 3 41 1 21 6 29 17 28 8 -2 34
17 56 40 85 89 260 147 368 122 17 -4 -8 12 -55 36 -111 56 -211 154 -260 255
-29 60 -41 74 -70 84 -94 32 -191 74 -200 85 -8 10 -6 32 9 82 11 37 22 81 26
96 3 17 11 27 18 24 76 -34 162 -67 172 -67 7 0 16 15 19 34 9 48 77 148 143
211 65 61 135 99 222 119 56 13 61 13 77 -6 26 -28 8 -50 -62 -72 -71 -22 -70
-22 -55 -40 22 -26 3 -37 -48 -30 -48 6 -49 6 -103 -49 -60 -59 -94 -119 -103
-182 -6 -40 -5 -41 90 -138 100 -101 173 -147 236 -147 43 0 42 14 -5 56 -108
97 -120 110 -107 119 13 8 120 -15 127 -27 3 -4 16 -8 29 -8 12 0 81 -16 151
-35 71 -20 172 -47 224 -61 149 -39 161 -44 158 -62 -2 -9 -47 -38 -103 -65
-104 -52 -180 -67 -242 -48 -16 5 -55 16 -88 26 -132 37 -165 46 -279 80 -65
20 -123 38 -127 41 -15 9 -10 -7 11 -41 47 -77 178 -166 295 -201 43 -13 92
-18 170 -18 150 0 281 40 200 60 -27 7 -34 24 -10 24 9 0 61 22 116 49 103 50
109 46 34 -21 -33 -30 -23 -38 14 -11 16 10 21 12 16 3 -5 -7 4 -5 18 6 15 10
24 25 22 31 -2 7 1 12 8 10 7 -1 11 3 10 10 -2 7 11 37 27 66 97 176 64 366
-89 516 -26 25 -85 68 -95 69 -5 0 -12 4 -15 9 -3 5 -23 17 -43 26 -21 10 -38
25 -38 33 0 12 5 12 38 -1 20 -9 48 -27 62 -39 14 -13 34 -26 45 -30 11 -3 32
-17 47 -31 15 -14 35 -25 46 -25 10 0 57 -8 104 -19 l86 -19 10 23 c8 18 16
21 39 17 15 -2 35 -11 44 -18 40 -35 124 -21 149 25 13 26 13 31 -4 31 -8 0
-23 17 -33 37 -14 29 -28 40 -61 51 -46 15 -46 15 -27 82 9 30 -14 41 -155 81
-110 31 -153 38 -185 33 -34 -5 -85 6 -261 56 -121 33 -233 66 -251 71 -26 8
-35 19 -48 59 -16 48 -29 60 -65 60 -9 0 -23 7 -30 15 -13 16 -39 17 -110 5z
m-96 -202 c-23 -76 -30 -92 -47 -106 -14 -12 -310 -62 -364 -62 -19 0 -22 6
-25 58 -5 68 -2 79 22 87 37 12 366 73 397 74 l32 1 -15 -52z m439 -58 c-3
-12 -8 -19 -11 -16 -5 6 5 36 12 36 2 0 2 -9 -1 -20z m1 -107 l9 -41 59 -6
c71 -8 128 -31 128 -52 0 -8 15 -21 33 -29 19 -8 39 -21 47 -29 7 -9 18 -16
25 -16 17 0 78 -51 70 -58 -2 -3 -13 2 -22 10 -37 32 -121 67 -183 77 -117 19
-170 23 -170 14 0 -5 -6 -17 -13 -28 -12 -15 -14 -2 -13 93 1 116 13 141 30
65z m-64 -23 c0 -13 -7 -20 -20 -20 -13 0 -18 5 -14 15 4 8 10 12 15 9 5 -3 9
0 9 5 0 6 2 11 5 11 3 0 5 -9 5 -20z m24 -83 c-3 -9 -10 -17 -15 -17 -11 0
-12 34 -2 44 11 11 24 -9 17 -27z m578 -32 c-2 -14 -6 -25 -8 -25 -2 0 -4 11
-4 25 0 14 4 25 9 25 4 0 6 -11 3 -25z m52 -30 c3 -8 1 -15 -4 -15 -6 0 -10 7
-10 15 0 8 2 15 4 15 2 0 6 -7 10 -15z m-77 -447 c-3 -8 -6 -5 -6 6 -1 11 2
17 5 13 3 -3 4 -12 1 -19z m-15 -103 c-2 -14 -11 -25 -18 -25 -18 0 -18 9 3
32 21 23 21 23 15 -7z m-1462 -740 c0 -40 16 -54 34 -29 7 9 18 14 24 10 32
-20 -9 -68 -54 -64 -16 1 -35 -2 -43 -6 -10 -7 -11 3 -6 50 8 60 20 88 36 78
5 -3 9 -20 9 -39z m-10 -980 c5 3 11 1 15 -4 3 -6 -4 -8 -16 -6 -15 3 -19 0
-15 -10 3 -8 0 -15 -7 -15 -8 0 -6 -4 3 -10 8 -5 10 -10 5 -10 -26 0 -34 22
-17 48 9 13 18 20 20 13 2 -6 8 -9 12 -6z m10 -315 c0 -5 -2 -10 -4 -10 -3 0
-8 5 -11 10 -3 6 -1 10 4 10 6 0 11 -4 11 -10z m606 -797 c-11 -11 -17 4 -9
23 7 18 8 18 11 1 2 -10 1 -21 -2 -24z"/>
<path d="M1547 3940 c-3 -11 -3 -20 -1 -20 2 0 8 9 14 20 6 11 7 20 2 20 -6 0
-12 -9 -15 -20z"/>
<path d="M1543 3870 c0 -25 2 -35 4 -22 2 12 2 32 0 45 -2 12 -4 2 -4 -23z"/>
<path d="M2710 3815 c0 -27 6 -37 28 -49 15 -8 42 -28 60 -45 18 -17 39 -31
47 -31 7 0 20 -3 28 -6 30 -11 25 25 -9 64 -32 38 -123 102 -144 102 -6 0 -10
-16 -10 -35z"/>
<path d="M1541 3804 c0 -11 3 -14 6 -6 3 7 2 16 -1 19 -3 4 -6 -2 -5 -13z"/>
<path d="M1660 3561 c0 -11 19 -25 38 -27 10 -2 8 3 -4 17 -18 20 -34 25 -34
10z"/>
<path d="M2982 3555 c-13 -16 -5 -19 22 -9 9 3 13 10 10 15 -7 13 -17 11 -32
-6z"/>
<path d="M2838 3553 c7 -3 16 -2 19 1 4 3 -2 6 -13 5 -11 0 -14 -3 -6 -6z"/>
<path d="M2918 3543 c7 -3 16 -2 19 1 4 3 -2 6 -13 5 -11 0 -14 -3 -6 -6z"/>
<path d="M2472 3366 l-32 -23 50 -2 c28 0 94 -9 148 -20 53 -11 131 -22 172
-25 l75 -6 -50 15 c-27 8 -60 15 -72 15 -12 0 -23 4 -25 9 -2 7 -201 61 -226
61 -4 0 -23 -11 -40 -24z"/>
<path d="M2011 3274 c13 -13 28 -24 35 -24 7 0 25 -15 39 -34 28 -37 96 -70
125 -61 10 3 21 19 25 34 3 16 16 33 29 39 13 6 31 25 40 42 l16 32 -28 -6
c-59 -13 -190 -17 -245 -8 l-58 9 22 -23z"/>
<path d="M2898 3283 c6 -2 18 -2 25 0 6 3 1 5 -13 5 -14 0 -19 -2 -12 -5z"/>
<path d="M1768 2980 c-54 -3 -100 -9 -104 -12 -3 -4 17 -77 45 -163 28 -86 51
-165 51 -175 0 -30 -25 -36 -190 -50 -185 -14 -194 -18 -176 -63 8 -17 21 -69
31 -113 10 -45 21 -87 25 -94 9 -15 18 -15 231 -6 144 7 178 6 185 -5 5 -8 32
-74 60 -148 28 -74 58 -139 66 -144 9 -7 25 -5 44 4 24 12 29 21 32 57 2 28 8
42 17 42 16 0 9 30 -8 42 -7 4 -5 15 5 30 9 14 18 61 23 120 5 69 11 98 21
102 8 3 14 16 14 30 0 14 4 27 9 31 5 3 12 19 16 35 4 17 14 36 23 42 19 15
58 86 51 93 -3 2 -33 -1 -67 -7 -53 -10 -65 -9 -78 3 -8 9 -35 82 -59 165 -25
82 -49 159 -55 172 -11 25 -23 25 -212 12z m442 -390 c0 -5 -2 -10 -4 -10 -3
0 -8 5 -11 10 -3 6 -1 10 4 10 6 0 11 -4 11 -10z"/>
<path d="M1605 2128 c-27 -5 -53 -13 -57 -17 -5 -4 2 -34 15 -66 l23 -60 54
-3 c30 -2 65 0 78 3 24 6 25 8 19 71 -4 36 -9 69 -12 74 -7 12 -52 11 -120 -2z"/>
<path d="M1140 1801 c-8 -6 -19 -7 -25 -5 -5 3 -3 0 6 -8 9 -7 17 -16 17 -20
4 -19 17 -6 18 17 1 14 1 25 0 25 -1 0 -8 -4 -16 -9z"/>
<path d="M1360 1628 c-7 -24 -16 -54 -20 -68 -12 -36 -19 -110 -13 -126 8 -20
43 28 43 58 0 13 9 43 20 66 15 31 19 52 14 77 -9 47 -28 44 -44 -7z"/>
<path d="M1308 1353 c0 -10 0 -29 1 -42 1 -14 -3 -35 -10 -48 -13 -25 0 -51
19 -39 13 8 22 70 15 111 -6 36 -22 48 -25 18z"/>
<path d="M780 1315 c-11 -13 -10 -14 4 -9 9 3 16 10 16 15 0 13 -6 11 -20 -6z"/>
<path d="M666 1171 c-5 -7 -3 -18 3 -24 14 -14 20 -6 11 17 -5 15 -9 16 -14 7z"/>
</g>
</svg>
